name rise30.2954peak35.7071fall66.7804.mot
datacolumns 19
datarows 20
range 19.54826800000000 19.57993000000000
endheader
time	ground_force1_vx	ground_force1_vy	ground_force1_vz	ground_force1_px	ground_force1_py	ground_force1_pz	ground_force2_vx	ground_force2_vy	ground_force2_vz	ground_force2_px	ground_force2_py	ground_force2_pz	ground_torque1_x	ground_torque1_y	ground_torque1_z	ground_torque2_x	ground_torque2_y	ground_torque2_z	
19.54826800000000	-3.15634400000000	45.71578100000000	-13.15080100000000	0.26983500000000	0.00000000000000	0.06320200000000	-53.14126100000000	825.23558500000001	-51.80850900000000	0.04522800000000	0.00000000000000	-0.09155400000000	0.00000000000000	-7.72757000000000	0.00000000000000	0.00000000000000	-12.39769800000000	0.00000000000000	
19.54994500000000	-3.36316300000000	52.25683600000000	-14.54041200000000	0.27303900000000	0.00000000000000	0.06412000000000	-54.25215100000000	823.16620899999998	-51.66040500000000	0.04435400000000	0.00000000000000	-0.09149300000000	0.00000000000000	-8.59678300000000	0.00000000000000	0.00000000000000	-12.49406100000000	0.00000000000000	
19.55160000000000	-3.49932600000000	58.72796800000000	-15.78290900000000	0.27599800000000	0.00000000000000	0.06496900000000	-55.38376400000000	820.96352100000001	-51.49051500000000	0.04348200000000	0.00000000000000	-0.09143000000000	0.00000000000000	-9.38692200000000	0.00000000000000	0.00000000000000	-12.59661800000000	0.00000000000000	
19.55326200000000	-3.55860400000000	65.06200800000001	-16.85777100000000	0.27874300000000	0.00000000000000	0.06575900000000	-56.53493500000000	818.62457199999994	-51.29806200000000	0.04261300000000	0.00000000000000	-0.09136300000000	0.00000000000000	-10.08464900000000	0.00000000000000	0.00000000000000	-12.70524800000000	0.00000000000000	
19.55492900000000	-3.53792900000000	71.21673100000000	-17.75461900000000	0.28130200000000	0.00000000000000	0.06649800000000	-57.70439500000000	816.14639799999998	-51.08229100000000	0.04174700000000	0.00000000000000	-0.09129300000000	0.00000000000000	-10.68267600000000	0.00000000000000	0.00000000000000	-12.81980500000000	0.00000000000000	
19.55659700000000	-3.43714100000000	77.17437700000001	-18.47254200000000	0.28369700000000	0.00000000000000	0.06719200000000	-58.89076900000000	813.52602800000000	-50.84246900000000	0.04088500000000	0.00000000000000	-0.09122000000000	0.00000000000000	-11.17945000000000	0.00000000000000	0.00000000000000	-12.94011900000000	0.00000000000000	
19.55826100000000	-3.25854000000000	82.93925200000000	-19.01876800000000	0.28594600000000	0.00000000000000	0.06784700000000	-60.09257500000000	810.76049499999999	-50.57789600000000	0.04002700000000	0.00000000000000	-0.09114400000000	0.00000000000000	-11.57842800000000	0.00000000000000	0.00000000000000	-13.06599800000000	0.00000000000000	
19.55992700000000	-3.00632600000000	88.53391700000000	-19.40689300000000	0.28806300000000	0.00000000000000	0.06846700000000	-61.30822700000000	807.84684200000004	-50.28790300000000	0.03917300000000	0.00000000000000	-0.09106400000000	0.00000000000000	-11.88705700000000	0.00000000000000	0.00000000000000	-13.19722400000000	0.00000000000000	
19.56159500000000	-2.68598000000000	93.99456300000000	-19.65489600000000	0.29006200000000	0.00000000000000	0.06905800000000	-62.53603600000000	804.78213200000005	-49.97185700000000	0.03832400000000	0.00000000000000	-0.09098100000000	0.00000000000000	-12.11560800000000	0.00000000000000	0.00000000000000	-13.33355800000000	0.00000000000000	
19.56326300000000	-2.30365600000000	99.36605700000000	-19.78314400000000	0.29195400000000	0.00000000000000	0.06962100000000	-63.77421200000000	801.56345599999997	-49.62917000000000	0.03747900000000	0.00000000000000	-0.09089400000000	0.00000000000000	-12.27597000000000	0.00000000000000	0.00000000000000	-13.47473400000000	0.00000000000000	
19.56492600000000	-1.86563500000000	104.69715500000000	-19.81254700000000	0.29374600000000	0.00000000000000	0.07016100000000	-65.02086400000000	798.18794400000002	-49.25929700000000	0.03664000000000	0.00000000000000	-0.09080300000000	0.00000000000000	-12.38052700000000	0.00000000000000	0.00000000000000	-13.62046600000000	0.00000000000000	
19.56659200000000	-1.37786000000000	110.03621000000000	-19.76298600000000	0.29544600000000	0.00000000000000	0.07067900000000	-66.27400400000001	794.65277400000002	-48.86174200000000	0.03580600000000	0.00000000000000	-0.09070900000000	0.00000000000000	-12.44118200000000	0.00000000000000	0.00000000000000	-13.77044300000000	0.00000000000000	
19.56826300000000	-0.84558900000000	115.42763800000000	-19.65209300000000	0.29706100000000	0.00000000000000	0.07117800000000	-67.53155099999999	790.95518600000003	-48.43606500000000	0.03497700000000	0.00000000000000	-0.09061200000000	0.00000000000000	-12.46858400000000	0.00000000000000	0.00000000000000	-13.92433100000000	0.00000000000000	
19.56992600000000	-0.27316300000000	120.90928700000001	-19.49441200000000	0.29859600000000	0.00000000000000	0.07166000000000	-68.79133000000000	787.09248600000001	-47.98188000000000	0.03415400000000	0.00000000000000	-0.09051000000000	0.00000000000000	-12.47158800000000	0.00000000000000	0.00000000000000	-14.08177300000000	0.00000000000000	
19.57159900000000	0.33610500000000	126.51074100000000	-19.30094100000000	0.30005500000000	0.00000000000000	0.07212600000000	-70.05107900000000	783.06206199999997	-47.49886300000000	0.03333700000000	0.00000000000000	-0.09040500000000	0.00000000000000	-12.45693800000000	0.00000000000000	0.00000000000000	-14.24239300000000	0.00000000000000	
19.57325900000000	0.97994300000000	132.25252100000000	-19.07902400000000	0.30144200000000	0.00000000000000	0.07257800000000	-71.30845400000000	778.86139700000001	-46.98675700000000	0.03252500000000	0.00000000000000	-0.09029700000000	0.00000000000000	-12.42917700000000	0.00000000000000	0.00000000000000	-14.40578900000000	0.00000000000000	
19.57493400000000	1.65704500000000	138.14609200000001	-18.83252900000000	0.30276000000000	0.00000000000000	0.07301600000000	-72.56102900000000	774.48807299999999	-46.44536900000000	0.03171900000000	0.00000000000000	-0.09018400000000	0.00000000000000	-12.39072600000000	0.00000000000000	0.00000000000000	-14.57154300000000	0.00000000000000	
19.57659800000000	2.36693100000000	144.19451500000000	-18.56226200000000	0.30401200000000	0.00000000000000	0.07344300000000	-73.80630300000000	769.93979100000001	-45.87457800000000	0.03091900000000	0.00000000000000	-0.09006800000000	0.00000000000000	-12.34211800000000	0.00000000000000	0.00000000000000	-14.73921300000000	0.00000000000000	
19.57826600000000	3.10976200000000	150.39358400000000	-18.26652700000000	0.30519900000000	0.00000000000000	0.07385800000000	-75.04170800000000	765.21437900000001	-45.27433900000000	0.03012400000000	0.00000000000000	-0.08994800000000	0.00000000000000	-12.28232700000000	0.00000000000000	0.00000000000000	-14.90834300000000	0.00000000000000	
19.57993000000000	3.88614000000000	156.73326900000001	-17.94177500000000	0.30632500000000	0.00000000000000	0.07426400000000	-76.26461000000000	760.30980599999998	-44.64468200000000	0.02933500000000	0.00000000000000	-0.08982500000000	0.00000000000000	-12.20915900000000	0.00000000000000	0.00000000000000	-15.07845400000000	0.00000000000000	
